<svg width="1811" height="1027" viewBox="0 0 1811 1027" fill="none" xmlns="http://www.w3.org/2000/svg">
<circle cx="520" cy="910" r="50" fill="#573EBF"/>
<circle cx="254" cy="797" r="50" fill="#573EBF"/>
<path d="M1116 782C1116 809.614 1093.61 832 1066 832C1038.39 832 1016 809.614 1016 782C1016 754.386 1038.39 732 1066 732C1093.61 732 1116 754.386 1116 782Z" fill="#FFF507"/>
<path d="M1405 279C1405 306.614 1382.61 329 1355 329C1327.39 329 1305 306.614 1305 279C1305 251.386 1327.39 229 1355 229C1382.61 229 1405 251.386 1405 279Z" fill="#D50FF5"/>
<circle cx="902" cy="128" r="50" fill="#FFF507"/>
<circle cx="454.5" cy="731.5" r="32.5" fill="#C18080"/>
<circle cx="41" cy="583" r="34" fill="#0AA552"/>
<circle cx="388" cy="178" r="34" fill="#0AA552"/>
<circle cx="1455" cy="567" r="50" fill="#A00B0B"/>
<circle cx="204" cy="337" r="50" fill="#A00B0B"/>
<circle cx="828.5" cy="965.5" r="45.5" fill="#2400FF"/>
<circle cx="1163" cy="21" r="21" fill="#FF0000"/>
<circle cx="721" cy="638" r="21" fill="#FF0000"/>
<circle cx="541" cy="308" r="21" fill="#FF0000"/>
<circle cx="614.5" cy="74.5" r="32.5" fill="#23F2FF"/>
<circle cx="1676.5" cy="779.5" r="32.5" fill="#23F2FF"/>
<circle cx="1372.5" cy="746.5" r="32.5" fill="#23F2FF"/>
<circle cx="60.5" cy="74.5" r="53.5" fill="#00FF1A"/>
<circle cx="1676.5" cy="144.5" r="53.5" fill="#00FF1A"/>
<path d="M1811 973.5C1811 1003.05 1787.05 1027 1757.5 1027C1727.95 1027 1704 1003.05 1704 973.5C1704 943.953 1727.95 920 1757.5 920C1787.05 920 1811 943.953 1811 973.5Z" fill="#00FF1A"/>
<ellipse cx="60" cy="965.5" rx="60" ry="61.5" fill="#FFD3D3"/>
<ellipse cx="1355" cy="921.5" rx="60" ry="61.5" fill="#E06969"/>
<circle cx="1016" cy="477" r="20" fill="#037700"/>
<circle cx="380" cy="451" r="26" fill="#AC8FFF"/>
</svg>
